<svg xmlns="http://www.w3.org/2000/svg" viewBox="0 0 16 16" width="512" height="512">
  <rect width="16" height="16" rx="3" fill="#0d6efd"/>
  <path fill="white" transform="translate(2.5, 1)"
        d="M5.5 0c-.69 0-1.843.265-2.928.56-1.11.3-2.229.655-2.887.87a1.54 1.54 0 0 0-1.044 1.262c-.596 4.477.787 7.795 2.465 9.99a11.8 11.8 0 0 0 2.517 2.453c.386.273.744.482 1.048.625.28.132.581.208.829.208s.548-.076.829-.208a7 7 0 0 0 1.048-.625 11.8 11.8 0 0 0 2.517-2.453c1.678-2.195 3.061-5.513 2.465-9.99a1.54 1.54 0 0 0-1.044-1.263 62.5 62.5 0 0 0-2.887-.87C7.343.266 6.19 0 5.5 0m0 5a1.5 1.5 0 0 1 .5 2.915l.385 1.99a.5.5 0 0 1-.491.595h-.788a.5.5 0 0 1-.49-.595l.384-1.99A1.5 1.5 0 0 1 5.5 5"/>
</svg>
